# Blender v2.80 (sub 75) OBJ File: 'Pilleur.blend'
# www.blender.org
mtllib Coupe.mtl
o Cylinder.002
v -0.114163 0.072529 -0.244182
v -0.114163 0.050555 -0.244182
v -0.009671 0.072529 -0.168263
v -0.009671 0.050555 -0.168263
v -0.049583 0.072529 -0.045425
v -0.049583 0.050555 -0.045425
v -0.178743 0.072529 -0.045425
v -0.178743 0.050555 -0.045425
v -0.218656 0.072529 -0.168263
v -0.218656 0.050555 -0.168263
v 0.051553 -0.280158 -0.364693
v 0.051553 0.194216 -0.382394
v 0.396868 -0.280158 -0.113807
v 0.413703 0.194216 -0.119277
v 0.264970 -0.280158 0.292135
v 0.275374 0.194216 0.306455
v -0.161863 -0.280158 0.292135
v -0.172267 0.194216 0.306455
v -0.293761 -0.280158 -0.113807
v -0.310596 0.194216 -0.119277
v 0.499685 0.194216 -0.147214
v 0.051553 0.194216 -0.472801
v 0.328514 0.194216 0.379596
v -0.225407 0.194216 0.379596
v -0.396578 0.194216 -0.147214
v 0.413703 -0.089353 -0.119277
v 0.051553 -0.089353 -0.382394
v 0.275374 -0.089353 0.306455
v -0.172267 -0.089353 0.306455
v -0.310596 -0.089353 -0.119277
v 0.051553 -0.474068 -0.237075
v 0.275497 -0.474068 -0.074371
v 0.189958 -0.474068 0.188890
v -0.086851 -0.474068 0.188890
v -0.172390 -0.474068 -0.074371
v 0.051553 -0.591373 -0.146054
v 0.188931 -0.591373 -0.046244
v 0.136457 -0.591373 0.115253
v -0.033350 -0.591373 0.115253
v -0.085824 -0.591373 -0.046244
v 0.051553 -0.992677 -0.146054
v 0.188931 -0.992677 -0.046244
v 0.136457 -0.992677 0.115253
v -0.033350 -0.992677 0.115253
v -0.085824 -0.992677 -0.046244
v 0.120772 -0.084078 0.256882
v 0.120772 -0.084078 -0.260097
v 0.400499 0.181304 0.256882
v 0.400499 0.181304 -0.260097
v 0.053675 0.103012 0.176792
v 0.050695 -0.010214 0.256882
v 0.053675 0.103012 -0.180007
v 0.050695 -0.010214 -0.260097
v 0.217196 0.258148 0.176792
v 0.330422 0.255169 0.256882
v 0.217196 0.258148 -0.180007
v 0.330422 0.255169 -0.260097
v -0.070488 0.117358 0.008642
v -0.051557 0.106202 0.008642
v -0.017440 0.207383 0.084560
v 0.001491 0.196228 0.084560
v -0.037703 0.172996 0.207399
v -0.018771 0.161841 0.207399
v -0.103274 0.061719 0.207399
v -0.084342 0.050563 0.207399
v -0.123536 0.027332 0.084560
v -0.104604 0.016176 0.084560
v 0.032756 0.122230 -0.384031
v 0.025974 0.101329 -0.384031
v 0.132147 0.089980 -0.308113
v 0.125365 0.069079 -0.308113
v 0.094183 0.102298 -0.185275
v 0.087401 0.081397 -0.185275
v -0.028671 0.142162 -0.185275
v -0.035453 0.121261 -0.185275
v -0.066635 0.154481 -0.308113
v -0.073417 0.133580 -0.308113
v 0.032756 0.122230 0.148126
v 0.025974 0.101329 0.148126
v 0.132147 0.089980 0.224045
v 0.125365 0.069079 0.224045
v 0.094183 0.102298 0.346883
v 0.087401 0.081397 0.346883
v -0.028671 0.142162 0.346883
v -0.035453 0.121261 0.346883
v -0.066635 0.154481 0.224045
v -0.073417 0.133580 0.224045
v -0.220498 0.251475 0.148126
v -0.227280 0.230574 0.148126
v -0.121107 0.219224 0.224045
v -0.127889 0.198323 0.224045
v -0.159071 0.231543 0.346883
v -0.165853 0.210642 0.346883
v -0.281925 0.271407 0.346883
v -0.288708 0.250506 0.346883
v -0.319889 0.283726 0.224045
v -0.326672 0.262824 0.224045
v -0.071353 0.251475 -0.328346
v -0.078135 0.230574 -0.328346
v 0.028038 0.219224 -0.252428
v 0.021256 0.198323 -0.252428
v -0.009926 0.231543 -0.129589
v -0.016708 0.210642 -0.129589
v -0.132780 0.271407 -0.129589
v -0.139562 0.250506 -0.129589
v -0.170744 0.283726 -0.252428
v -0.177526 0.262824 -0.252428
v -0.135159 0.168521 -0.110192
v -0.126649 0.148261 -0.110192
v -0.038820 0.208986 -0.034274
v -0.030310 0.188727 -0.034274
v -0.075618 0.193530 0.088564
v -0.067108 0.173270 0.088564
v -0.194700 0.143512 0.088564
v -0.186190 0.123252 0.088564
v -0.231498 0.128055 -0.034274
v -0.222989 0.107796 -0.034274
v 0.202230 0.203710 0.152603
v 0.188780 0.186333 0.152603
v 0.284862 0.139753 0.228521
v 0.271413 0.122376 0.228521
v 0.253299 0.164182 0.351359
v 0.239850 0.146805 0.351359
v 0.151160 0.243238 0.351359
v 0.137710 0.225861 0.351359
v 0.119597 0.267668 0.228521
v 0.106147 0.250291 0.228521
v -0.129977 0.123496 0.152603
v -0.143427 0.106119 0.152603
v -0.047345 0.059538 0.228521
v -0.060795 0.042161 0.228521
v -0.078908 0.083968 0.351359
v -0.092357 0.066591 0.351359
v -0.181047 0.163023 0.351359
v -0.194497 0.145646 0.351359
v -0.212610 0.187453 0.228521
v -0.226060 0.170076 0.228521
v -0.199467 -0.022146 -0.096770
v -0.212917 -0.039523 -0.096770
v -0.116835 -0.086104 -0.020851
v -0.130284 -0.103481 -0.020851
v -0.148398 -0.061674 0.101987
v -0.161847 -0.079051 0.101987
v -0.250537 0.017382 0.101987
v -0.263987 0.000005 0.101987
v -0.282100 0.041811 -0.020852
v -0.295550 0.024434 -0.020852
vt 0.684540 0.811727
vt 0.683141 0.821408
vt 0.649328 0.790854
vt 0.657728 0.788484
vt 0.656272 0.746459
vt 0.662461 0.752844
vt 0.708496 0.729770
vt 0.711336 0.738655
vt 0.799099 0.835806
vt 0.824658 0.800627
vt 0.866014 0.814065
vt 0.866014 0.857548
vt 0.824658 0.870986
vt 0.722683 0.738332
vt 0.722683 0.794776
vt 0.714000 0.790125
vt 0.435438 0.484070
vt 0.574975 0.462293
vt 0.574975 0.624455
vt 0.433760 0.605852
vt 0.039559 0.204283
vt 0.040822 0.024535
vt 0.243904 0.058760
vt 0.187923 0.214850
vt 0.409143 0.158323
vt 0.306842 0.276802
vt 0.973082 0.088278
vt 0.973082 0.345058
vt 0.857215 0.272727
vt 0.870219 0.181451
vt 0.521196 0.300343
vt 0.391270 0.371711
vt 0.257745 0.338578
vt 0.166674 0.292667
vt 0.837824 0.653754
vt 0.837824 0.503047
vt 0.862448 0.485157
vt 0.862448 0.671644
vt 0.694494 0.456477
vt 0.685088 0.427529
vt 0.605911 0.578401
vt 0.575474 0.578401
vt 0.694494 0.700325
vt 0.685088 0.729272
vt 0.713390 0.215417
vt 0.781363 0.149675
vt 0.762858 0.293065
vt 0.733264 0.427031
vt 0.575474 0.227583
vt 0.730298 0.024535
vt 0.326955 0.410852
vt 0.275307 0.441482
vt 0.217069 0.385615
vt 0.062745 0.288886
vt 0.366626 0.496797
vt 0.368257 0.582899
vt 0.314089 0.507419
vt 0.177365 0.588230
vt 0.147276 0.544077
vt 0.146966 0.350373
vt 0.079947 0.340763
vt 0.327653 0.571347
vt 0.264236 0.732601
vt 0.230633 0.686351
vt 0.264236 0.640100
vt 0.318607 0.657766
vt 0.318607 0.714935
vt 0.111408 0.506093
vt 0.070462 0.475484
vt 0.206246 0.639602
vt 0.026918 0.452067
vt 0.157369 0.806717
vt 0.101226 0.805899
vt 0.099684 0.719511
vt 0.155826 0.720329
vt 0.230135 0.886127
vt 0.191468 0.836626
vt 0.185216 0.685504
vt 0.230135 0.644961
vt 0.026918 0.640100
vt 0.065585 0.689602
vt 0.071837 0.840723
vt 0.026918 0.881266
vt 0.610686 0.811727
vt 0.609287 0.821408
vt 0.575474 0.790854
vt 0.583874 0.788484
vt 0.582418 0.746458
vt 0.588607 0.752844
vt 0.634642 0.729770
vt 0.637482 0.738655
vt 0.319105 0.767415
vt 0.344664 0.732236
vt 0.386020 0.745673
vt 0.386020 0.789157
vt 0.344664 0.802595
vt 0.648829 0.738332
vt 0.648829 0.794776
vt 0.640146 0.790125
vt 0.354317 0.722057
vt 0.352918 0.731738
vt 0.319105 0.701184
vt 0.327505 0.698814
vt 0.326049 0.656788
vt 0.332239 0.663174
vt 0.378274 0.640100
vt 0.381113 0.648985
vt 0.386518 0.767415
vt 0.412077 0.732236
vt 0.453433 0.745673
vt 0.453433 0.789157
vt 0.412077 0.802595
vt 0.392461 0.648661
vt 0.392461 0.705106
vt 0.383777 0.700455
vt 0.428171 0.722057
vt 0.426772 0.731738
vt 0.392959 0.701184
vt 0.401359 0.698814
vt 0.399903 0.656788
vt 0.406093 0.663174
vt 0.452128 0.640100
vt 0.454967 0.648985
vt 0.824658 0.800129
vt 0.799099 0.764950
vt 0.824658 0.729770
vt 0.866014 0.743208
vt 0.866014 0.786692
vt 0.466315 0.648661
vt 0.466315 0.705106
vt 0.457631 0.700455
vt 0.731225 0.759119
vt 0.723181 0.755246
vt 0.758663 0.729770
vt 0.758691 0.738413
vt 0.798601 0.749293
vt 0.790660 0.753238
vt 0.798601 0.804376
vt 0.789230 0.804376
vt 0.520846 0.745673
vt 0.520846 0.789157
vt 0.479490 0.802595
vt 0.453931 0.767415
vt 0.479490 0.732236
vt 0.786766 0.815743
vt 0.730207 0.801666
vt 0.737947 0.794636
vt 0.502025 0.722057
vt 0.500626 0.731738
vt 0.466813 0.701184
vt 0.475213 0.698814
vt 0.473757 0.656788
vt 0.479947 0.663174
vt 0.525982 0.640100
vt 0.528821 0.648985
vt 0.297548 0.790021
vt 0.256192 0.803458
vt 0.230633 0.768279
vt 0.256192 0.733100
vt 0.297548 0.746537
vt 0.540169 0.648661
vt 0.540169 0.705106
vt 0.531485 0.700455
vt 0.731225 0.759119
vt 0.723181 0.755246
vt 0.758663 0.729770
vt 0.758691 0.738413
vt 0.798601 0.749293
vt 0.790660 0.753238
vt 0.798601 0.804376
vt 0.789230 0.804376
vt 0.786766 0.815743
vt 0.730207 0.801666
vt 0.737947 0.794636
vt 0.731225 0.759119
vt 0.723181 0.755246
vt 0.758663 0.729770
vt 0.758691 0.738413
vt 0.798601 0.749293
vt 0.790660 0.753238
vt 0.798601 0.804376
vt 0.789230 0.804376
vt 0.786766 0.815743
vt 0.730207 0.801666
vt 0.737947 0.794636
vt 0.731225 0.759119
vt 0.723181 0.755246
vt 0.758663 0.729770
vt 0.758691 0.738413
vt 0.798601 0.749293
vt 0.790660 0.753238
vt 0.798601 0.804376
vt 0.789230 0.804376
vt 0.786766 0.815743
vt 0.730207 0.801666
vt 0.737947 0.794636
vt 0.731225 0.759119
vt 0.723181 0.755246
vt 0.758663 0.729770
vt 0.758691 0.738413
vt 0.798601 0.749293
vt 0.790660 0.753238
vt 0.798601 0.804376
vt 0.789230 0.804376
vt 0.786766 0.815743
vt 0.730207 0.801666
vt 0.737947 0.794636
vn -0.5878 0.0000 0.8090
vn -0.9511 0.0000 -0.3090
vn 0.0000 0.0000 -1.0000
vn 0.0000 1.0000 0.0000
vn 0.9511 0.0000 -0.3090
vn 0.5878 0.0000 0.8090
vn 0.0000 -1.0000 0.0000
vn 0.5780 -0.1813 -0.7956
vn 0.9353 -0.1813 0.3039
vn -0.0000 -0.1813 0.9834
vn -0.9353 -0.1813 0.3039
vn -0.5780 -0.1813 -0.7956
vn -0.0000 -0.4700 0.8827
vn -0.8055 -0.5317 0.2617
vn -0.8395 -0.4700 0.2728
vn 0.8395 -0.4700 0.2728
vn -0.5188 -0.4700 -0.7141
vn 0.5188 -0.4700 -0.7141
vn -0.5878 -0.0000 -0.8090
vn 0.8055 -0.5317 0.2617
vn -0.4978 -0.5317 -0.6852
vn -0.0000 -0.5317 0.8470
vn 0.4978 -0.5317 -0.6852
vn -0.0000 -0.0000 1.0000
vn 0.5878 0.0000 -0.8090
vn -0.9511 -0.0000 0.3090
vn 0.9511 0.0000 0.3090
vn -0.6883 0.7255 0.0000
vn 0.7255 0.6883 0.0000
vn -0.7255 -0.6883 0.0000
vn -0.9997 0.0263 0.0000
vn -0.4867 0.5130 -0.7071
vn 0.0263 0.9997 0.0000
vn -0.4867 0.5130 0.7071
vn -0.2984 -0.5064 0.8090
vn -0.4828 -0.8194 -0.3090
vn -0.8616 0.5077 0.0000
vn 0.4828 0.8194 -0.3090
vn 0.2984 0.5064 0.8090
vn 0.8616 -0.5077 0.0000
vn -0.5591 0.1814 0.8090
vn -0.9046 0.2935 -0.3090
vn 0.3086 0.9512 0.0000
vn 0.9046 -0.2935 -0.3090
vn 0.5591 -0.1814 0.8090
vn -0.3086 -0.9512 0.0000
vn -0.5419 -0.2276 0.8090
vn -0.8768 -0.3683 -0.3090
vn 0.8768 0.3683 -0.3090
vn 0.5419 0.2276 0.8090
vn 0.3873 -0.9220 0.0000
vn -0.4648 0.3598 0.8090
vn -0.7521 0.5821 -0.3090
vn 0.7521 -0.5821 -0.3090
vn 0.4648 -0.3598 0.8090
vn -0.6121 -0.7908 0.0000
usemtl M_Coupe
s off
f 1/1/1 2/2/1 4/3/1 3/4/1
f 3/4/2 4/3/2 6/5/2 5/6/2
f 5/6/3 6/5/3 8/7/3 7/8/3
f 4/9/4 2/10/4 10/11/4 8/12/4 6/13/4
f 7/8/5 8/14/5 10/15/5 9/16/5
f 9/16/6 10/15/6 2/2/6 1/1/6
f 1/1/7 3/4/7 5/6/7 7/8/7 9/16/7
f 11/17/8 22/18/8 21/19/8 13/20/8
f 13/21/9 21/22/9 23/23/9 15/24/9
f 15/24/10 23/23/10 24/25/10 17/26/10
f 20/27/5 18/28/5 29/29/5 30/30/5
f 17/26/11 24/25/11 25/31/11 19/32/11
f 19/32/12 25/31/12 22/18/12 11/17/12
f 15/24/13 17/26/13 34/33/13 33/34/13
f 12/35/4 14/36/4 21/37/4 22/38/4
f 14/36/4 16/39/4 23/40/4 21/37/4
f 16/39/4 18/41/4 24/42/4 23/40/4
f 18/41/4 20/43/4 25/44/4 24/42/4
f 20/43/4 12/35/4 22/38/4 25/44/4
f 26/45/4 27/46/4 30/30/4 29/29/4 28/47/4
f 16/48/2 14/49/2 26/45/2 28/47/2
f 12/50/6 20/27/6 30/30/6 27/46/6
f 18/28/3 16/48/3 28/47/3 29/29/3
f 14/49/1 12/50/1 27/46/1 26/45/1
f 34/33/14 35/51/14 40/52/14 39/53/14
f 17/26/15 19/32/15 35/51/15 34/33/15
f 13/21/16 15/24/16 33/34/16 32/54/16
f 19/32/17 11/17/17 31/55/17 35/51/17
f 11/17/18 13/20/18 32/56/18 31/55/18
f 40/52/19 36/57/19 41/58/19 45/59/19
f 32/54/20 33/34/20 38/60/20 37/61/20
f 35/51/21 31/55/21 36/57/21 40/52/21
f 33/34/22 34/33/22 39/53/22 38/60/22
f 31/55/23 32/56/23 37/62/23 36/57/23
f 41/63/7 42/64/7 43/65/7 44/66/7 45/67/7
f 38/60/24 39/53/24 44/68/24 43/69/24
f 36/57/25 37/62/25 42/70/25 41/58/25
f 39/53/26 40/52/26 45/59/26 44/68/26
f 37/61/27 38/60/27 43/69/27 42/71/27
f 56/72/28 52/73/28 50/74/28 54/75/28
f 49/76/29 57/77/29 55/78/29 48/79/29
f 46/80/30 51/81/30 53/82/30 47/83/30
f 47/83/3 53/82/3 57/77/3 49/76/3
f 50/74/31 52/73/31 53/82/31 51/81/31
f 52/73/32 56/72/32 57/77/32 53/82/32
f 56/72/33 54/75/33 55/78/33 57/77/33
f 54/75/34 50/74/34 51/81/34 55/78/34
f 48/79/24 55/78/24 51/81/24 46/80/24
f 58/84/35 59/85/35 61/86/35 60/87/35
f 60/87/36 61/86/36 63/88/36 62/89/36
f 62/89/3 63/88/3 65/90/3 64/91/3
f 61/92/37 59/93/37 67/94/37 65/95/37 63/96/37
f 64/91/38 65/97/38 67/98/38 66/99/38
f 66/99/39 67/98/39 59/85/39 58/84/39
f 58/84/40 60/87/40 62/89/40 64/91/40 66/99/40
f 68/100/41 69/101/41 71/102/41 70/103/41
f 70/103/42 71/102/42 73/104/42 72/105/42
f 72/105/3 73/104/3 75/106/3 74/107/3
f 71/108/43 69/109/43 77/110/43 75/111/43 73/112/43
f 74/107/44 75/113/44 77/114/44 76/115/44
f 76/115/45 77/114/45 69/101/45 68/100/45
f 68/100/46 70/103/46 72/105/46 74/107/46 76/115/46
f 78/116/41 79/117/41 81/118/41 80/119/41
f 80/119/42 81/118/42 83/120/42 82/121/42
f 82/121/3 83/120/3 85/122/3 84/123/3
f 81/124/43 79/125/43 87/126/43 85/127/43 83/128/43
f 84/123/44 85/129/44 87/130/44 86/131/44
f 86/131/45 87/130/45 79/117/45 78/116/45
f 78/116/46 80/119/46 82/121/46 84/123/46 86/131/46
f 88/132/41 89/133/41 91/134/41 90/135/41
f 90/135/42 91/134/42 93/136/42 92/137/42
f 92/137/3 93/136/3 95/138/3 94/139/3
f 91/140/43 89/141/43 97/142/43 95/143/43 93/144/43
f 94/139/44 95/145/44 97/146/44 96/147/44
f 96/147/45 97/146/45 89/133/45 88/132/45
f 88/132/46 90/135/46 92/137/46 94/139/46 96/147/46
f 98/148/41 99/149/41 101/150/41 100/151/41
f 100/151/42 101/150/42 103/152/42 102/153/42
f 102/153/3 103/152/3 105/154/3 104/155/3
f 101/156/43 99/157/43 107/158/43 105/159/43 103/160/43
f 104/155/44 105/161/44 107/162/44 106/163/44
f 106/163/45 107/162/45 99/149/45 98/148/45
f 98/148/46 100/151/46 102/153/46 104/155/46 106/163/46
f 108/164/47 109/165/47 111/166/47 110/167/47
f 110/167/48 111/166/48 113/168/48 112/169/48
f 112/169/3 113/168/3 115/170/3 114/171/3
f 114/171/49 115/172/49 117/173/49 116/174/49
f 116/174/50 117/173/50 109/165/50 108/164/50
f 108/164/51 110/167/51 112/169/51 114/171/51 116/174/51
f 118/175/52 119/176/52 121/177/52 120/178/52
f 120/178/53 121/177/53 123/179/53 122/180/53
f 122/180/3 123/179/3 125/181/3 124/182/3
f 124/182/54 125/183/54 127/184/54 126/185/54
f 126/185/55 127/184/55 119/176/55 118/175/55
f 118/175/56 120/178/56 122/180/56 124/182/56 126/185/56
f 128/186/52 129/187/52 131/188/52 130/189/52
f 130/189/53 131/188/53 133/190/53 132/191/53
f 132/191/3 133/190/3 135/192/3 134/193/3
f 134/193/54 135/194/54 137/195/54 136/196/54
f 136/196/55 137/195/55 129/187/55 128/186/55
f 128/186/56 130/189/56 132/191/56 134/193/56 136/196/56
f 138/197/52 139/198/52 141/199/52 140/200/52
f 140/200/53 141/199/53 143/201/53 142/202/53
f 142/202/3 143/201/3 145/203/3 144/204/3
f 144/204/54 145/205/54 147/206/54 146/207/54
f 146/207/55 147/206/55 139/198/55 138/197/55
f 138/197/56 140/200/56 142/202/56 144/204/56 146/207/56
